<svg width="30" height="30" viewBox="0 0 30 30" fill="none" xmlns="http://www.w3.org/2000/svg">
<rect width="30" height="30" rx="3" fill="#1E1E1E"/>
<path d="M15.6521 15.6519H22.2324C23.4342 15.6519 24.377 15.9695 25.061 16.6046C25.7449 17.2299 26.0869 18.0848 26.0869 19.1693C26.0869 20.2538 25.7449 21.1136 25.061 21.7487C24.377 22.374 23.4342 22.6866 22.2324 22.6866H18.1289V26.0867H15.6521V15.6519ZM18.1289 20.5909H22.0712C22.5597 20.5909 22.9359 20.4688 23.1997 20.2245C23.4733 19.9802 23.6101 19.6285 23.6101 19.1693C23.6101 18.7101 23.4733 18.3583 23.1997 18.1141C22.9261 17.8698 22.55 17.7477 22.0712 17.7477H18.1289V20.5909Z" fill="white"/>
<path d="M9.52717 22.1456V20.2943H14.3477V25.8623H12.6135L12.3196 24.544C11.6141 25.5725 10.4825 26.0867 8.9246 26.0867C7.40592 26.0867 6.19098 25.6099 5.27977 24.6562C4.36857 23.7211 3.91296 22.4589 3.91296 20.8693C3.91296 19.2611 4.38816 17.9895 5.33856 17.0545C6.27916 16.1195 7.57249 15.6519 9.21854 15.6519C10.5804 15.6519 11.7121 15.9745 12.6135 16.6197C13.5247 17.2742 14.0587 18.1484 14.2155 19.2424H11.6729C11.5259 18.7562 11.2418 18.3775 10.8205 18.1064C10.3992 17.8352 9.8701 17.6996 9.23323 17.6996C8.38081 17.6996 7.70966 17.9801 7.21976 18.5411C6.73966 19.1022 6.49961 19.8782 6.49961 20.8693C6.49961 21.8605 6.74946 22.6365 7.24916 23.1975C7.75865 23.7585 8.4592 24.039 9.35081 24.039C9.99747 24.039 10.5511 23.8661 11.0116 23.5201C11.4819 23.1648 11.7611 22.7066 11.8493 22.1456H9.52717Z" fill="white"/>
<path d="M21.5167 8.35346L22.7451 3.91281H26.0869V14.3476H23.9603V11.2846C23.9603 9.34027 23.9867 7.65976 24.0395 6.24305C23.8722 6.95629 23.6609 7.74769 23.4055 8.61726L21.7809 14.3476H19.9581L18.3334 8.61726C18.1397 7.92356 17.9328 7.13704 17.7126 6.25771C17.7566 7.89913 17.7787 9.57476 17.7787 11.2846V14.3476H15.6521V3.91281H18.9938L20.2354 8.39742C20.4028 9.0325 20.6185 9.89718 20.8827 10.9915C21.094 10.0633 21.3053 9.18394 21.5167 8.35346Z" fill="white"/>
<path d="M3.91296 3.91306L8.55771 3.91306C10.4241 3.91306 11.8557 4.37715 12.8525 5.30534C13.8493 6.22376 14.3477 7.49879 14.3477 9.13045C14.3477 10.7621 13.8493 12.042 12.8525 12.9702C11.8557 13.8886 10.4241 14.3478 8.55771 14.3478L3.91296 14.3478L3.91296 3.91306ZM6.60119 12.2521L8.50999 12.2521C9.4856 12.2521 10.2332 11.9932 10.7528 11.4753C11.2831 10.9477 11.5482 10.1661 11.5482 9.13045C11.5482 8.09479 11.2831 7.31804 10.7528 6.80021C10.2332 6.27261 9.4856 6.00881 8.50999 6.00881L6.60119 6.00881L6.60119 12.2521Z" fill="white"/>
<rect x="23.4783" y="23.4783" width="2.6087" height="2.6087" rx="1" fill="#D9D9D9"/>
</svg>
